<svg xmlns="http://www.w3.org/2000/svg" viewBox="0 0 37.29 97.88"><defs><style>.cls-1{fill:#f4df4a;}.cls-2{fill:#231f20;}</style></defs><title>bart</title><g id="Layer_2" data-name="Layer 2"><g id="Layer_1-2" data-name="Layer 1"><path class="cls-1" d="M.25,55.43l0-53.14A92.13,92.13,0,0,0,6.35,20.58,84.73,84.73,0,0,1,10.63,1.29,128.65,128.65,0,0,0,13.9,18.84a40.24,40.24,0,0,1,5.54-15.1,97.78,97.78,0,0,0,1.72,15.5,26.16,26.16,0,0,1,6.5-13l.39,12.11A49.65,49.65,0,0,1,36.89,2.11c1.41,29-4.14,58.13-1.5,87,.32,3.47.36,7.88-2.22,9.38-1.6.93-3.47.21-5.14-.52L12.72,91.23a19.83,19.83,0,0,0,3.56-5.76c.77-2.24.76-5-.55-6.86a8,8,0,0,0-2.84-2.22L4.61,71.78c-1-.56-2.19-1.5-2-2.83.09-.62.48-1.11.62-1.72a4.54,4.54,0,0,0-.17-2Q1.66,59.43.28,53.64" transform="translate(-0.03 -1.16)"/><path class="cls-2" d="M.47,55.3.5,2.16l-.43.25a96.49,96.49,0,0,0,6.06,18.3s.43-.2.43-.25a88.61,88.61,0,0,1,4.29-19.3l-.43.25A135.69,135.69,0,0,0,13.68,19s.42-.19.43-.25a41.82,41.82,0,0,1,5.55-15.1l-.43.25a103.53,103.53,0,0,0,1.71,15.5c0-.06.42-.18.43-.25a27.13,27.13,0,0,1,6.51-13l-.43.25.38,12.11c0-.08.41-.17.44-.25A51.1,51.1,0,0,1,37.11,2l-.43.25c.78,17.13-.76,34.21-1.66,51.29-.44,8.36-.73,16.74-.48,25.12.12,4,.51,8,.74,11.93.15,2.75.19,6.3-2.33,8.05l.43-.25c-2.65,1.14-5.42-.66-7.83-1.72l-9-4a18.08,18.08,0,0,1-2.7-1.18c-.93-.64-.85-.08-.39-1.06.58-1.23,1.72-2.26,2.36-3.51,1.15-2.28,1.72-5.16.63-7.57s-4.06-3.51-6.23-4.72l-4.14-2.3a7.18,7.18,0,0,1-2.86-2.07c-.68-1.12-.14-1.77.13-2.89a7.84,7.84,0,0,0-.41-3.76L.5,53.51s-.45.2-.44.25l2.2,9.16a15.31,15.31,0,0,1,.81,3.76C3,68,2,69,2.6,70.28c.89,1.91,4.22,3,5.93,3.93,2.23,1.24,5.45,2.37,7,4.52a7.56,7.56,0,0,1,.76,6.18,12.86,12.86,0,0,1-1.76,3.75c-.31.47-.64.93-1,1.38l-1,1.32.9.4c1,.92,3.21,1.41,4.51,2l4.5,2C24.93,96.82,28,98.82,30.78,99c7.62.57,4.52-13.34,4.33-17.27-.6-12.4.09-24.82.84-37.2C36.82,30.39,37.76,16.19,37.11,2c0,.06-.39.2-.43.25A51.32,51.32,0,0,0,27.83,18.5l.44-.25L27.88,6.14c0,.05-.39.19-.43.25a27,27,0,0,0-6.51,13l.43-.25a103.53,103.53,0,0,1-1.71-15.5c0,.06-.39.18-.43.25A41.64,41.64,0,0,0,13.68,19l.43-.25A137.41,137.41,0,0,1,10.85,1.16c0,.07-.41.18-.43.25a88.61,88.61,0,0,0-4.29,19.3l.43-.25A97.2,97.2,0,0,1,.5,2.16c0,.06-.43.19-.43.25L0,55.55c0-.08.44-.16.44-.25Z" transform="translate(-0.03 -1.16)"/></g></g></svg>