<svg xmlns="http://www.w3.org/2000/svg" viewBox="0 0 38.89 68.62"><defs><style>.cls-1{fill:#f3df49;}.cls-2{fill:#231f20;}</style></defs><title>homer</title><g id="Layer_2" data-name="Layer 2"><g id="Layer_1-2" data-name="Layer 1"><path class="cls-1" d="M7.09,35.34c.26-4.63-.22-9.29.21-13.9S9.24,12.06,12.68,9c4-3.48,9.66-4,14.9-3.76a11,11,0,0,1,4.33.81c3.08,1.48,4.3,5.23,5,8.62,3.46,16.89,1.56,34.38-.35,51.52a34.1,34.1,0,0,1-13.23,2.08,1.38,1.38,0,0,1-1-.31,1.52,1.52,0,0,1-.27-1l-.37-7.63a2,2,0,0,0-.29-1.14,1.74,1.74,0,0,0-1.18-.52c-2.27-.34-4.59,0-6.88-.23s-4.72-1.32-5.59-3.48C7.2,52.62.27,51,5.87,50c.45-.08-2.2-.16-2.57-.43C2.59,49,3.92,47,4.84,46.37c1.36-.88-.21-2.62.17-4.22L6.6,35.36" transform="translate(-0.2)"/><path class="cls-2" d="M7.31,35.21C7.69,26.93,5.74,16.77,11.82,10,15.15,6.27,20.25,5.42,25,5.37c4.21,0,8,.34,10.1,4.44,1.91,3.77,2.33,8.44,2.81,12.57a113.71,113.71,0,0,1,.72,14.29,289.08,289.08,0,0,1-2.27,29.68l.43-.25a34.06,34.06,0,0,1-12.32,2.11c-2.37-.06-2.14-1.14-2.24-3.19L22,61.21a8.42,8.42,0,0,0-.15-2.52c-.71-1.62-3.36-1.21-4.85-1.2A16.37,16.37,0,0,1,11.54,57c-2.53-.89-3.22-3.2-5.42-4.44-.44-.25-1.94-.82-2.08-1.36-.27-1.08,1-.59,1.63-1.06s.45-.06-.1-.34c-.88-.46-2,.33-2.24-1s1.69-2,2.11-2.92c.52-1.11-.31-2.38-.24-3.55.13-2.32,1.09-4.83,1.62-7.1,0,.11-.41.14-.43.25-.54,2.29-1.69,5.05-1.66,7.4,0,1.67.87,2.37-.29,3.76-.51.62-2.21,2.11-1.36,3a8.43,8.43,0,0,0,2.58.43l.43-.25c-.85.17-3.08.52-2.31,1.73.62,1,2.39,1.23,3.24,2a12.94,12.94,0,0,1,1.24,1.76,6.51,6.51,0,0,0,3.18,2c2.67.8,5.46.15,8.17.52,1.79.25,1.85,1,1.94,2.67s.16,3.18.23,4.77c0,1.08-.24,2.51.81,3.1.9.5,3.16.09,4.12,0a35.76,35.76,0,0,0,9.63-2.05c.06,0,.43-.2.43-.25,1.9-17,3.92-34.57.35-51.51C36.51,11.66,35.58,8.3,33,6.48c-2.83-2-7.49-1.54-10.77-1.19-4,.42-8.08,1.87-10.83,4.94C5.31,17,7.26,27.18,6.88,35.46c0-.08.42-.15.43-.25Z" transform="translate(-0.2)"/><path class="cls-2" d="M14.1,7.22C15.87,2.65,20.42,1,25,.83c1.74-.06,4-.26,5.5.88S32,5,32.43,6.71c0,0,.44-.21.43-.25C32.06,3.59,32.05,1,28.49.63A18.1,18.1,0,0,0,19.06,2a10.22,10.22,0,0,0-5.39,5.52c0-.12.38-.12.43-.25Z" transform="translate(-0.2)"/><path class="cls-2" d="M20,5.31c-.1-4.75,6.3-5,9.69-4.89C34.6.54,35,5.06,34.56,9c0-.09.42-.15.43-.25.27-2.69.54-6.39-2.18-8C30.7-.52,26.61.07,24.34.69s-4.87,2.16-4.82,4.87c0-.07.44-.16.44-.25Z" transform="translate(-0.2)"/><path class="cls-2" d="M28.71,34a13.18,13.18,0,0,1,1.93-4.49l-.44.25c.4.77,1.06,3.18,2.07,2.91a1.22,1.22,0,0,0,.36-.27A20.81,20.81,0,0,0,35,29.07l-.43.25a23,23,0,0,0,1.78,5.3s.44-.24.43-.25A24,24,0,0,1,35,29.07s-.4.2-.43.25A21.66,21.66,0,0,1,32,32.83l.43-.25c-.75-.22-1.48-2.4-1.81-3,0,0-.41.21-.44.25a13.16,13.16,0,0,0-1.92,4.49c0-.11.41-.13.43-.25Z" transform="translate(-0.2)"/><path class="cls-2" d="M31.63,35.88c.84-.16,2.59-.6,3.39-.12a2.37,2.37,0,0,1,.67,2.41c-.5,2.36-2.89,2.9-5,2.54-.13,0-.31.27-.43.25A5.63,5.63,0,0,0,35,39.82a3.35,3.35,0,0,0,1.07-3.35,1.37,1.37,0,0,0-1.31-1.09,9.89,9.89,0,0,0-2.71.25c-.15,0-.28.22-.43.25Z" transform="translate(-0.2)"/><path class="cls-1" d="M14,32.1l-7.28-.21c-2.13-.07-4.55,0-6,1.61a1.92,1.92,0,0,0-.46.79,1.75,1.75,0,0,0,.6,1.65,4,4,0,0,0,1.63.78,29.18,29.18,0,0,0,8,.72l4.33,0" transform="translate(-0.2)"/><path class="cls-2" d="M14.22,32c-3.41-.1-7.54-.85-10.87,0a6.51,6.51,0,0,0-1.71.74c-2.84,1.77-1,3.74,1.54,4.32,3.71.82,7.7.49,11.48.47.15,0,.29-.25.43-.25-2.63,0-5.29.11-7.93,0-1.77-.1-5.83-.1-6.56-2.2-1.5-4.4,11.29-2.89,13.19-2.84.14,0,.29-.25.43-.25Z" transform="translate(-0.2)"/></g></g></svg>