<svg xmlns="http://www.w3.org/2000/svg" viewBox="0 0 91.98 82.63"><defs><style>.cls-1{fill:#f3df49;}.cls-2{fill:#231f20;}</style></defs><title>lisa_1</title><g id="Layer_2" data-name="Layer 2"><g id="Layer_1-2" data-name="Layer 1"><path class="cls-1" d="M70.9,46.22,92.42,33.11a81.53,81.53,0,0,0-25.2-1.75Q71.33,19.7,75.43,8.07A74.61,74.61,0,0,1,51.16,26.23Q46.72,13.62,42.29,1L37.67,28.4,12,22.42q5.37,10.2,10.73,20.4c.61,1.14,1.22,2.51.7,3.7a4,4,0,0,1-2,1.76L.87,59.46A256.7,256.7,0,0,0,27.62,60,12.78,12.78,0,0,0,28,63.4a4.7,4.7,0,0,0,2.8,3.39c1.45.44,3.09-.3,4.45.41-.11,1.48-1.24,2.55-2.19,3.57s-1.87,2.5-1.41,3.89c.57,1.71,2.63,1.84,4.24,1.66l8.88-1a2.66,2.66,0,0,1,1.53.13,3.23,3.23,0,0,1,1.11,1.15l3.81,5.52a2.81,2.81,0,0,0,.89,1,2.46,2.46,0,0,0,1.14.2l8.24,0a.88.88,0,0,0,.63-.17,1.16,1.16,0,0,0,.25-.83q.36-9.72.74-19.42l-5.85-.72c10.84-.74,21.67-1.74,32.47-3.09Z" transform="translate(-0.65 -0.87)"/><path class="cls-2" d="M71.09,46.11,92.61,33h0a85,85,0,0,0-12.07-1.83c-2-.15-4.07-.23-6.1-.23-1.84,0-4.29.55-6.1.22-.89.36-1.15.23-.77-.39l.49-1.39,1-2.8c.76-2.17,1.53-4.35,2.3-6.52L75.64,7.94c0,.1-.35.16-.43.25a74.39,74.39,0,0,1-22.33,17.2c-2.08,1-1.59.47-2.16-1.15L49.4,20.5,47.1,14Q44.81,7.42,42.5.87s-.42.2-.43.25l-4.61,27.4.43-.25-25.64-6c-.05,0-.43.27-.44.25l6.26,11.9,3.13,6c.82,1.54,2.19,3.35,2.21,5.15,0,2.31-2.58,3.08-4.3,4q-3,1.62-6,3.26-6,3.26-12,6.52c-.09,0-.33.25-.43.24q7.42.54,14.86.66,3.47,0,6.94,0l3.47-.07h.49c.8-.36,1.13-.23,1,.4a7.17,7.17,0,0,1,.12,1.7c.23,1.65.9,3.58,2.48,4.41,1.09.58,4.75-.21,4.95,1,.39,2.48-6.66,5.76-2.54,8.35,1.34.84,3.27.42,4.72.26a71.22,71.22,0,0,1,7.4-.81C49,75.45,48.88,83,53,83.41c2.1.19,4.31,0,6.41,0,.77,0,1.88.24,2.55-.21,1.31-.88.71-4,.76-5.41L63,70l.16-4.37c0-.54.34-2.61.06-2.92s-2.39-.29-2.87-.34l-2.93-.36L57,62.3c10.85-.75,21.68-1.76,32.47-3.09.07,0,.39-.28.43-.25L71.12,46.1c-.06-.05-.38.29-.43.25L89.5,59.21l.43-.25c-10.79,1.33-21.62,2.34-32.47,3.09-.13,0-.3.27-.43.25l3.41.41a7.06,7.06,0,0,1,2,.25c.73.4.4.92.36,2l-.35,9.23L62.27,79c-.05,1.23.21,3.12-.37,4.24l.43-.25c-1.53.74-4.41.15-6.13.15a14.82,14.82,0,0,1-3.33,0c-1.13-.28-1.64-1.4-2.26-2.29-1-1.46-2.46-4.76-4.1-5.5-1-.45-2.46,0-3.51.09l-4.44.49c-1.65.19-3.88.77-5.47,0-2-1-1.39-3.22-.29-4.69.7-1,3.87-3.62,2-4.37s-3.63.6-5.29-1.18a5.77,5.77,0,0,1-1.25-2.37c-.17-.58-.07-3-.37-3.38s-3.4.08-4,.09c-1.49,0-3,0-4.46,0q-7.94,0-15.85-.51c-.5,0-1.43.18-1.76-.24s.47-.56,1-.85l3.43-1.86,7.3-4c2.83-1.53,5.89-2.89,8.58-4.68,3.64-2.41.12-6.63-1.38-9.47L12.25,22.29l-.44.25,25.65,6a1.67,1.67,0,0,0,.43-.25L42.5.87l-.43.25q3,8.65,6.08,17.29l1.64,4.68L50.45,25l.49,1.4L51.7,26c1.51-.3,3.2-1.62,4.56-2.39A76.92,76.92,0,0,0,75.64,7.94l-.43.25L69,25.89c-.45,1.29-1.63,3.32-1.64,4.66l-.33.93,1.41-.11c.78-.05,1.56-.1,2.34-.13a82.77,82.77,0,0,1,17.77,1.24c1.13.21,3.49.16,2.47,1.49-.72,1-3.11,1.9-4.14,2.53L70.72,46.33Z" transform="translate(-0.65 -0.87)"/></g></g></svg>