<svg xmlns="http://www.w3.org/2000/svg" viewBox="0 0 91.98 76.11"><defs><style>.cls-1{fill:#f4df4a;}.cls-2{fill:#231f20;}.cls-3{fill:#894253;stroke:#231f20;stroke-miterlimit:10;stroke-width:0.5px;}</style></defs><title>maggie</title><g id="Layer_2" data-name="Layer 2"><g id="Layer_1-2" data-name="Layer 1"><path class="cls-1" d="M28.48,53.86C19.3,54.14,10.11,54,1,53.38l20.6-10a3.9,3.9,0,0,0,2-1.57c.52-1.07-.1-2.3-.7-3.33L12.12,20.13,37.76,25.5,42.37.9l8.88,22.65A74.61,74.61,0,0,0,75.52,7.25l-8.21,20.9a90.66,90.66,0,0,1,25.2,1.58L71,41.5,89.8,53q-17.94,2-36,3c4,8.45.24,20.83-8.13,20.83C27,71.79,36.36,78.11,27.49,73.6c-.45-.22.11-.51,0,0-1.37,6.5.56-.38,0,0-7.58,5.22,7.15,1.69,0,0-3.85-4.63-6-9.85.51-18.08" transform="translate(-0.74 -0.78)"/><path class="cls-2" d="M28.69,53.73c-7.53.22-15.08.17-22.61-.2-1,0-2,0-2.94-.16l-1-.06c-.8-.23-.68-.46.39-.69,1.26-1,3.46-1.68,4.93-2.39l10.3-5c1.47-.72,3-1.34,4.44-2.2,1.7-1,2.07-2.19,1.21-4.06-1.42-3.09-3.51-6-5.23-9L12.33,20l-.43.25,25.64,5.36a1.73,1.73,0,0,0,.44-.25L42.59.78,42.16,1l6.39,16.31,1.59,4.07a6.51,6.51,0,0,0,.71,1.82c.08.63.39.67,1,.12l.78-.34c1.81-.81,3.6-1.69,5.34-2.63A76.79,76.79,0,0,0,75.73,7.12l-.43.25L68.7,24.19c-.24.61-1.9,3.58-1.61,4.09.13.23,3.66-.21,4.22-.23q4.45-.14,8.91.16c2.81.19,5.61.51,8.38,1,.61.09,1.25.16,1.85.31a1.18,1.18,0,0,1,1.15.39c.37.2.3.35-.2.44-.59.9-2.89,1.58-3.87,2.12l-16.35,9a2.93,2.93,0,0,1-.41.23L89.59,53.17l.43-.25q-18,2-36,3a4.09,4.09,0,0,0-.43.25c2.3,5.09,2.27,11.59-.78,16.4-1.39,2.2-3.63,4.11-6.36,4.15-1.73,0-3.66-.81-5.36-1.19-1.28-.28-2.56-.55-3.86-.72a10.71,10.71,0,0,0-3.66-.06,11.13,11.13,0,0,1-1.35.43,5.05,5.05,0,0,1-2.35-.67c-.72-.32-1.93-1.31-2.59-.8a6.2,6.2,0,0,0-.49,2.8s.4-.2.43-.25c.27-.28.85-2.68.49-2.8s-1.54,1.08-1.62,1.14c-2.53,2.28,1,2,2.49,1.14,2.59-1.39-.63-1.93-1.57-3.16C22.56,66.78,24,61,28.22,55.39c-.1.12-.34.13-.44.25-2.6,3.42-4.94,7.55-3.88,12a13.43,13.43,0,0,0,2.18,4.56,4.58,4.58,0,0,0,1.62,1.65c.37.19,1.07.22,1.33.6.87,1.23-1.49,1.76-2.39,1.77-2.61,0,.24-2.15,1.06-2.73l-.43.25a6.89,6.89,0,0,1-.49,2.8l.43-.25c-.19-1,.63-2.07.44-3.08h0l-.12.06s-.42.25-.43.24a6.16,6.16,0,0,0,5.49,1.68c3.58-.89,7.64.46,11.1,1.35a8.34,8.34,0,0,0,8.93-3.3c3.7-4.8,3.83-11.94,1.4-17.3l-.43.25q18-1,36-3c.08,0,.38-.29.43-.25l-9.82-6-4.49-2.76-2.46-1.5L72,41.87c-.55-.51-.52-.83.07-1,.37-.51,1.57-.86,2.16-1.18l2.58-1.41L82,35.49l10.33-5.65c.07,0,.33-.25.4-.24A92.15,92.15,0,0,0,69.4,27.9L68,28c-.69.19-.73-.1-.11-.87A18.18,18.18,0,0,1,69,24.39l2.14-5.45L75.73,7.12c0,.11-.35.17-.43.25a74,74,0,0,1-8.19,7.13,72.53,72.53,0,0,1-7.18,4.69c-1.78,1-3.51,2-5.37,2.86a9.82,9.82,0,0,1-2.32,1.05c-.56.55-.88.51-1-.12l-.54-1.36L49.69,18.9,47.2,12.56,42.59.78s-.42.19-.43.25L37.54,25.62l.44-.25L12.33,20s-.42.26-.43.25l6.34,10.81,3.17,5.41c.73,1.25,2.33,3.16,2.11,4.75-.27,1.92-2.94,2.57-4.44,3.3l-6.27,3L1.16,53.26c-.09,0-.32.25-.42.24q13.74.89,27.52.48c.15,0,.29-.24.43-.25Z" transform="translate(-0.74 -0.78)"/><ellipse class="cls-3" cx="43.87" cy="45.22" rx="3.95" ry="4.03"/></g></g></svg>