<svg xmlns="http://www.w3.org/2000/svg" viewBox="0 0 37.88 99.03"><defs><style>.cls-1{fill:#f3df49;}.cls-2{fill:#231f20;}.cls-3{fill:#38409a;stroke:#231f20;stroke-miterlimit:10;stroke-width:0.5px;}</style></defs><title>marge</title><g id="Layer_2" data-name="Layer 2"><g id="Layer_1-2" data-name="Layer 1"><path class="cls-1" d="M6.31,79.93a4.93,4.93,0,0,0,.83,3.54c.32.46.72.86,1,1.31a8.94,8.94,0,0,1,1.36,5.38,24.19,24.19,0,0,1-.81,6.22,10.66,10.66,0,0,0,3.25,2,10,10,0,0,0,3.08.36c2.1,0,4.19,0,6.29,0a.71.71,0,0,0,.52-.14.78.78,0,0,0,.18-.5l.61-5.83c.16-1.46.39-3.06,1.5-4,.5-.42,1.18-.69,1.46-1.28a2.4,2.4,0,0,0,.19-.79l.84-6.6"/><path class="cls-2" d="M6.1,80.05c-.21,2.81,1.68,3.87,2.63,6.25s.69,5.47.26,8a10.42,10.42,0,0,0-.47,2.19c.12.3,1,.77,1.23,1a7.38,7.38,0,0,0,3.16,1.33,26,26,0,0,0,3.74.12,22.44,22.44,0,0,0,4.49,0c2-.45,1.37-3.11,1.54-4.77a19.88,19.88,0,0,1,.6-4.14c.4-1.2,1.1-1.5,1.91-2.37,1.63-1.73,1.39-5.76,1.68-8.08,0,.09-.42.14-.43.25-.24,1.88-.45,3.77-.72,5.65a3.73,3.73,0,0,1-.7,2.24c-.44.52-1.11.72-1.55,1.29-2,2.58-.77,6.86-1.8,9.79l.43-.25c-2.32.62-5.57.29-8,.12a7.4,7.4,0,0,1-3.3-1A5,5,0,0,1,9.26,96.5c-.39-.64-.07-1.15.09-2a17.51,17.51,0,0,0,.06-7.69c-.75-2.68-3.1-4-2.88-7,0,.09-.43.15-.43.25Z"/><path class="cls-3" d="M30,42.61a9,9,0,0,0,.59-3.85,3,3,0,0,0-.56-1.41l-.41,6.23A7,7,0,0,0,30,42.61Z"/><path class="cls-3" d="M29.16,44.12a.86.86,0,0,1,.46-.1l0-.44A1.24,1.24,0,0,1,29.16,44.12Z"/><path class="cls-3" d="M34.24,20.61a2.19,2.19,0,0,0,.13-1.72l-.63,2.31A1.9,1.9,0,0,0,34.24,20.61Z"/><path class="cls-3" d="M34,24.8a3,3,0,0,0-.67-2l-1.12,4.05A2.31,2.31,0,0,0,34,24.8Z"/><path class="cls-3" d="M4.35,37.35a2.24,2.24,0,0,1,1.21-.58"/><path class="cls-3" d="M12.84,2.76A2.58,2.58,0,0,0,9.8,4a4.66,4.66,0,0,0-.28,3.54,2.45,2.45,0,0,0-2.3,1.27,2.55,2.55,0,0,0,.18,2.67A1.47,1.47,0,0,0,5.84,12.9,2.86,2.86,0,0,0,6.75,15a1.63,1.63,0,0,0-1.91,1.39A3.93,3.93,0,0,0,5.47,19a1.2,1.2,0,0,0-1.15.66A2.48,2.48,0,0,0,4.09,21a4.94,4.94,0,0,0,1.56,3.23,1.68,1.68,0,0,0-1.23,1.9,4.86,4.86,0,0,0,1.09,2.23A1.84,1.84,0,0,0,4,30.29a4.66,4.66,0,0,0,1,2.47c-.78.3-1.68.77-1.77,1.62a2.82,2.82,0,0,0,2.2,2.42"/><path class="cls-3" d="M4.35,37.35a2.64,2.64,0,0,0-.82,1.41,6,6,0,0,0,.71,3.49c0,.11,0,.21,0,.32v1.64a2.69,2.69,0,0,0-1.32,1.15,7.19,7.19,0,0,0-.66,3.26A4.14,4.14,0,0,0,2.6,51a1.56,1.56,0,0,0,1.49.71,3.8,3.8,0,0,0,.12,6.87v.13A3.39,3.39,0,0,0,.72,61.61a3.42,3.42,0,0,0,3,3.64C2.2,65.12,1.08,67,1.31,68.55a8,8,0,0,0,2.38,4c-1.51-.78-3.45.81-3.44,2.54a4.33,4.33,0,0,0,3,3.76A6.88,6.88,0,0,0,5,79.19a12,12,0,0,0,11.22,8.08h.47a12,12,0,0,0,11.21-8,5.15,5.15,0,0,0,2.92-.38,4.31,4.31,0,0,0,2.09-3.76c0-1.73-1.33-3.32-2.37-2.54a9.13,9.13,0,0,0,1.64-4c.16-1.57-.61-3.43-1.68-3.3,1.2-.1,2.22-1.87,2.09-3.64s-1.38-3.18-2.57-2.9A4.25,4.25,0,0,0,31.7,55a4.35,4.35,0,0,0-1.46-3.3,1,1,0,0,0,1-.71,5.78,5.78,0,0,0,.26-2.37,10.16,10.16,0,0,0-.46-3.26A1.86,1.86,0,0,0,29.62,44c.73-.45,1.37-.9,1.91-1.31s.7-.57.8-.74a3,3,0,0,0-.15-2.62,4.05,4.05,0,0,0-2.66-2l.05-.44q-1.45.57-1.41.69c0,.1.66,0,1.9-.24l.05-.83-.25.07A5.88,5.88,0,0,0,31.64,35,2,2,0,0,0,31,32.5l.09-.29c.06-.22.07-.44.13-.67a2.91,2.91,0,0,0,1.25-1.74A3,3,0,0,0,32,27.47l-.55-.69c0-.71.12.83,0,.13a3.06,3.06,0,0,1,.52.56l-.55-.69c-.24,0,.24.06,0,0a11.76,11.76,0,0,0-.31-1.59A12.43,12.43,0,0,0,33,22.48c.08.1.18.19.26.29l.44-1.57c-.07.05-.15.07-.22.12.1-.27.25-.52.33-.8l.27-.88c.09-.3.11-.6.18-.89a.91.91,0,0,1,.07.14l.23-.83-.17,0c.29-1.73.41,1.64,0,0,0,0,.14,0,.17,0a2.38,2.38,0,0,0,1.3-2.12,1.29,1.29,0,0,1,.17-.78,2.08,2.08,0,0,1,.58-.33,1,1,0,0,0,.4-1.17.93.93,0,0,0-.63-.54c.84-.17,1.09-.73,1.08-1.52.47-1.47-.4-2.3-1.39-3.14a2.48,2.48,0,0,0-1-2.56,2.37,2.37,0,0,0-2.71.15A2.35,2.35,0,0,0,31.3,3a6.54,6.54,0,0,0-3.46-.51,1.12,1.12,0,0,0-.45.12A1.62,1.62,0,0,0,26.84,1a4.06,4.06,0,0,0-2.4-.59c-.93,0-2.12.14-2.35,1.06a2.28,2.28,0,0,0-4.15.15c0-1-1.38-1.57-2.3-1.13a4.24,4.24,0,0,0-1.82,2.4l-1-.17"/><path class="cls-3" d="M5.71,36.78H5.56l.14,0"/></g></g></svg>